<svg xmlns="http://www.w3.org/2000/svg" viewBox="0 0 400 340" width="400" height="340">
  <!-- Cream background -->
  <rect width="400" height="340" fill="#EEECE6"/>

  <!-- Circle centered at 200, 130 -->
  <circle cx="200" cy="130" r="72" fill="none" stroke="#2C4A2E" stroke-width="3.5"/>

  <!-- Ground mound -->
  <path d="M176 172 Q200 158 224 172" fill="none" stroke="#2C4A2E" stroke-width="3.5" stroke-linecap="round"/>

  <!-- Stem -->
  <line x1="200" y1="172" x2="200" y2="108" stroke="#2C4A2E" stroke-width="3.5" stroke-linecap="round"/>

  <!-- Bottom left leaf -->
  <path d="M200 158 Q183 148 178 134 Q192 136 200 148" fill="#2C4A2E"/>

  <!-- Bottom right leaf -->
  <path d="M200 158 Q217 148 222 134 Q208 136 200 148" fill="#2C4A2E"/>

  <!-- Middle left leaf -->
  <path d="M200 142 Q180 130 176 114 Q193 117 200 132" fill="#2C4A2E"/>

  <!-- Middle right leaf -->
  <path d="M200 142 Q220 130 224 114 Q207 117 200 132" fill="#2C4A2E"/>

  <!-- Top leaf -->
  <path d="M200 108 Q188 92 192 78 Q204 84 200 100" fill="#2C4A2E"/>
  <path d="M200 108 Q212 92 208 78 Q196 84 200 100" fill="#2C4A2E"/>

  <!-- MAGIS text -->
  <text
    x="200"
    y="278"
    font-family="Georgia, 'Times New Roman', serif"
    font-size="68"
    font-weight="700"
    fill="#2C4A2E"
    text-anchor="middle"
    letter-spacing="6"
  >MAGIS</text>
</svg>
